<svg xmlns="http://www.w3.org/2000/svg" viewBox="0 0 200 200" width="200" height="200">
  <!-- Background circle -->
  <circle cx="100" cy="100" r="95" fill="#0d2b5c" />
  <circle cx="100" cy="100" r="88" fill="none" stroke="#1565c0" stroke-width="3"/>

  <!-- Building/Incubator icon -->
  <rect x="55" y="90" width="90" height="65" fill="none" stroke="#ffffff" stroke-width="4" rx="3"/>
  <rect x="70" y="75" width="60" height="20" fill="none" stroke="#ffffff" stroke-width="4" rx="2"/>
  <rect x="82" y="60" width="36" height="18" fill="none" stroke="#ffffff" stroke-width="3" rx="2"/>

  <!-- Windows -->
  <rect x="65" y="105" width="14" height="12" fill="#1976d2" rx="1"/>
  <rect x="85" y="105" width="14" height="12" fill="#1976d2" rx="1"/>
  <rect x="105" y="105" width="14" height="12" fill="#1976d2" rx="1"/>
  <rect x="125" y="105" width="14" height="12" fill="#1976d2" rx="1"/>
  <rect x="65" y="124" width="14" height="12" fill="#1976d2" rx="1"/>
  <rect x="105" y="124" width="14" height="12" fill="#1976d2" rx="1"/>
  <rect x="125" y="124" width="14" height="12" fill="#1976d2" rx="1"/>

  <!-- Door -->
  <rect x="88" y="130" width="24" height="25" fill="#1565c0" rx="2"/>
  <circle cx="108" cy="143" r="2" fill="#ffffff"/>

  <!-- Lightbulb (innovation) -->
  <circle cx="100" cy="37" r="10" fill="#ffc107"/>
  <line x1="95" y1="47" x2="95" y2="52" stroke="#ffc107" stroke-width="2"/>
  <line x1="100" y1="47" x2="100" y2="53" stroke="#ffc107" stroke-width="2"/>
  <line x1="105" y1="47" x2="105" y2="52" stroke="#ffc107" stroke-width="2"/>

  <!-- Text: TBI -->
  <text x="100" y="178" text-anchor="middle" font-family="Arial,sans-serif" font-size="13" font-weight="bold" fill="#ffffff">TBI – MCE</text>
  <text x="100" y="193" text-anchor="middle" font-family="Arial,sans-serif" font-size="8" fill="#90caf9">HASSAN</text>
</svg>
